<svg width="12" height="15" viewBox="0 0 12 15" fill="none" xmlns="http://www.w3.org/2000/svg">
<mask id="mask0_2413_381" style="mask-type:alpha" maskUnits="userSpaceOnUse" x="0" y="0" width="12" height="15">
<path d="M11.6602 12.9406C11.603 9.65424 11.1317 8.71781 7.52468 8.12506C7.52468 8.12506 7.01694 8.71418 5.8335 8.71418C4.65007 8.71418 4.14224 8.12506 4.14224 8.12506C0.574624 8.71135 0.0746004 9.63389 0.008854 12.8338C0.00346278 13.0951 0.000964277 13.1088 0 13.0785C0.000219168 13.1353 0.000482139 13.2405 0.000482139 13.4238C0.000482139 13.4238 0.859218 15.0001 5.8335 15.0001C10.8077 15.0001 11.6665 13.4238 11.6665 13.4238C11.6665 13.306 11.6666 13.2241 11.6667 13.1684C11.6658 13.1872 11.6639 13.1508 11.6602 12.9406ZM5.83341 6.87505C7.44416 6.87505 8.75006 5.33603 8.75006 3.43754C8.75006 1.53902 8.32132 0 5.83341 0C3.34551 0 2.91669 1.53902 2.91669 3.43754C2.91669 5.33603 4.22258 6.87505 5.83341 6.87505Z" fill="#616363"/>
</mask>
<g mask="url(#mask0_2413_381)">
<path d="M15.8334 -2.49992H-4.16669V17.5002H15.8334V-2.49992Z" fill="#026E78"/>
</g>
</svg>
