<svg width="15" height="14" viewBox="0 0 15 14" fill="none" xmlns="http://www.w3.org/2000/svg">
<path d="M5.01158 4.42926L6.78542 0.85619C7.01313 0.397502 7.67098 0.397502 7.89869 0.85619L9.67253 4.42926L13.6394 5.00576C14.1484 5.07973 14.3512 5.70177 13.9827 6.05862L11.1128 8.83791L11.7901 12.7643C11.8771 13.2686 11.3448 13.6531 10.8894 13.4149L7.34205 11.5601L3.79472 13.4149C3.33931 13.6531 2.80699 13.2686 2.89397 12.7643L3.57126 8.83791L0.701381 6.05862C0.332905 5.70177 0.535757 5.07973 1.04472 5.00576L5.01158 4.42926Z"/>
<path fill-rule="evenodd" clip-rule="evenodd" d="M7.28353 1.03938C7.27016 1.04726 7.25615 1.05981 7.24417 1.08394L5.47033 4.65701C5.39556 4.80761 5.25163 4.91193 5.08524 4.93611L1.11838 5.51261C1.02612 5.52602 0.99772 5.63262 1.05769 5.6907L3.92757 8.46999C4.04921 8.58779 4.10477 8.7581 4.07598 8.92497L3.39869 12.8514C3.39417 12.8776 3.3981 12.8951 3.40383 12.9083C3.41043 12.9236 3.42265 12.9397 3.44084 12.9528C3.45903 12.966 3.4789 12.973 3.49691 12.9747C3.51284 12.9761 3.53247 12.9741 3.5574 12.9611L7.10473 11.1062C7.2534 11.0285 7.43071 11.0285 7.57938 11.1062L11.1267 12.9611C11.1516 12.9741 11.1713 12.9761 11.1872 12.9747C11.2052 12.973 11.2251 12.966 11.2433 12.9528C11.2615 12.9397 11.2737 12.9236 11.2803 12.9083C11.286 12.8951 11.2899 12.8776 11.2854 12.8514L10.6081 8.92497C10.5793 8.7581 10.6349 8.58779 10.7565 8.46999L13.6264 5.6907C13.6864 5.63262 13.658 5.52602 13.5657 5.51261L9.59887 4.93611C9.43248 4.91193 9.28855 4.80761 9.21378 4.65701L7.43994 1.08394C7.42796 1.05981 7.41395 1.04726 7.40058 1.03938C7.38537 1.03042 7.36509 1.02435 7.34206 1.02435C7.31902 1.02435 7.29874 1.03042 7.28353 1.03938ZM6.32667 0.628444C6.74265 -0.209481 7.94146 -0.209481 8.35744 0.628444L10.0119 3.96102L13.713 4.49891C14.6387 4.63344 15.016 5.77093 14.339 6.42654L11.6636 9.01755L12.2949 12.6773C12.4551 13.6062 11.4774 14.3004 10.6521 13.8688L7.34206 12.1381L4.03204 13.8688C3.20671 14.3004 2.22901 13.6062 2.38925 12.6773L3.02054 9.01755L0.345073 6.42654C-0.33191 5.77093 0.0453982 4.63344 0.971064 4.49891L4.67222 3.96102L6.32667 0.628444Z"/>
</svg>
